# xmcd CD database file
#
# Track frame offsets:
#	150
#	23553
#	44903
#	73893
#	99320
#	121704
#	143522
#	178412
#	199051
#	224514
#	248168
#
# Disc length: 3713 seconds
#
# Revision: 0
# Processed by: cddbd v1.5.2PL0 Copyright (c) Steve Scherf et al.
# Submitted via: jetAudio 7
#
DISCID=a30e7f0b
DTITLE=Oliver Shanti - Man¡AHeaven¡AEarth
DYEAR=2006
DGENRE=New Age
TTITLE0=Onon Mweng (Rainbird)
TTITLE1=L'amour Magica Amor
TTITLE2=Heya Haya
TTITLE3=Tara Shakti Mantra
TTITLE4=Luohan Amitabha's Hands
TTITLE5=Existence Means Harmony
TTITLE6=Jerusalem
TTITLE7=Slow Changes
TTITLE8=Evolution 108
TTITLE9=Love Flows On
TTITLE10=Chenresie,Flame Of Peace And Compassion
EXTD=
EXTT0=
EXTT1=
EXTT2=
EXTT3=
EXTT4=
EXTT5=
EXTT6=
EXTT7=
EXTT8=
EXTT9=
EXTT10=
PLAYORDER=
